<svg class="uitk-icon uitk-icon-default-theme" aria-label="Ferienhütten" role="img" viewBox="0 0 24 24" xmlns="http://www.w3.org/2000/svg" xmlns:xlink="http://www.w3.org/1999/xlink"><title>Ferienhütten</title><path d="m21.728 9.355-8.296-6.842a2.254 2.254 0 0 0-2.863 0L6.5 5.869V3.5h.725a.75.75 0 0 0 0-1.5H5.75a.75.75 0 0 0-.75.75v4.357L2.273 9.355a.75.75 0 0 0 .954 1.158l8.296-6.842a.75.75 0 0 1 .954 0l8.295 6.842a.752.752 0 0 0 .956-1.158Z"></path><path d="M12.75 7.382a.75.75 0 1 0 0-1.5h-1.58a.75.75 0 1 0 0 1.5h1.58ZM18.777 19h-3.52v-1.083h3.493a.75.75 0 1 0 0-1.5h-3.493V15.25h3.493a.75.75 0 1 0 0-1.5h-3.493V12.5h3.507a.75.75 0 1 0 0-1.5H5.75a.75.75 0 1 0 0 1.5h3.507v1.298a.723.723 0 0 0-.237-.048H5.75a.75.75 0 1 0 0 1.5h3.27a.723.723 0 0 0 .237-.048v1.263a.72.72 0 0 0-.237-.048H5.75a.75.75 0 1 0 0 1.5h3.27a.723.723 0 0 0 .237-.048V19H5.75a.75.75 0 1 0 0 1.5h13.027a.75.75 0 1 0 0-1.5Zm-8.02-6.5h3V19h-3v-6.5ZM7.483 9.147c0 .414.336.75.75.75h7.517a.75.75 0 1 0 0-1.5H8.233a.75.75 0 0 0-.75.75Z"></path></svg>