<svg class="uitk-icon uitk-icon-default-theme" aria-label="Für Familien" role="img" viewBox="0 0 24 24" xmlns="http://www.w3.org/2000/svg" xmlns:xlink="http://www.w3.org/1999/xlink"><title>Für Familien</title><path fill-rule="evenodd" d="M4 4a3 3 0 1 1 6 0 3 3 0 0 1-6 0zm3-1a1 1 0 1 0 0 2 1 1 0 0 0 0-2zm7 1a3 3 0 1 1 6 0 3 3 0 0 1-6 0zm3-1a1 1 0 1 0 0 2 1 1 0 0 0 0-2zm-5 6a3 3 0 1 0 0 6 3 3 0 0 0 0-6zm-1 3a1 1 0 1 1 2 0 1 1 0 0 1-2 0z" clip-rule="evenodd"></path><path fill-rule="evenodd" d="M7.461 18.9a5 5 0 0 1 9.077-.003c.204-.165.403-.335.598-.51C18.85 16.85 20 15.096 20 13a3 3 0 0 0-3.623-2.935l-1.159-1.738A5 5 0 0 1 22 13c0 2.905-1.613 5.16-3.53 6.877-1.802 1.616-3.997 2.868-5.674 3.824l-.293.167a1 1 0 0 1-.99.002l-.258-.147c-1.707-.968-3.925-2.226-5.74-3.854C3.602 18.153 2 15.903 2 13a5 5 0 0 1 6.782-4.673l-1.158 1.738A3 3 0 0 0 4 13c0 2.097 1.142 3.847 2.851 5.38.198.178.402.351.61.52zm7.407 1.217a3.001 3.001 0 0 0-5.736 0c.965.64 1.955 1.21 2.874 1.732.91-.52 1.897-1.09 2.862-1.732z" clip-rule="evenodd"></path></svg>