<svg class="uitk-icon uitk-icon-spotlight-icon" aria-hidden="true" viewBox="0 0 24 24" xmlns="http://www.w3.org/2000/svg" xmlns:xlink="http://www.w3.org/1999/xlink"><path d="M14.692 9.124h-3.129v1.532h2.89v1.822h-2.89v3.452H9.584V7.294h5.108v1.83Z"></path><path fill-rule="evenodd" d="M20 3a1 1 0 0 1 1 1v7.912c0 2.807-1.149 4.83-2.813 6.404-1.572 1.49-3.632 2.6-5.555 3.637l-.157.085a1 1 0 0 1-.95 0l-.157-.085c-1.923-1.037-3.983-2.148-5.556-3.637C4.15 16.741 3 14.72 3 11.912V4a1 1 0 0 1 1-1h16ZM5 11.912c0 2.166.851 3.687 2.188 4.952 1.276 1.208 2.964 2.158 4.812 3.157 1.848-1 3.536-1.949 4.813-3.157C18.148 15.6 19 14.078 19 11.912V5H5v6.912Z" clip-rule="evenodd"></path></svg>