<svg class="uitk-icon uitk-icon-spotlight-icon" aria-hidden="true" viewBox="0 0 24 24" xmlns="http://www.w3.org/2000/svg" xmlns:xlink="http://www.w3.org/1999/xlink"><path fill-rule="evenodd" d="M7.318 3C3.786 3 1 6.055 1 9.5c0 2.854 2.314 8.6 10.519 11.997 1.082.448 2.294.087 2.996-.79.282-.353.458-.752.534-1.16a2.566 2.566 0 0 0 3.035-2.007 2.64 2.64 0 0 0 2.993-3.353l.853-1.279A6.415 6.415 0 0 0 23 9.36C23 5.881 20.181 3 16.682 3A8.682 8.682 0 0 0 12 4.37 8.682 8.682 0 0 0 7.318 3zm5.275 3.397A6.682 6.682 0 0 1 16.683 5C19.056 5 21 6.965 21 9.36c0 .866-.257 1.723-.735 2.439l-.52.782-5.73-3.438a1 1 0 0 0-1.158.09l-2.426 1.942a2.001 2.001 0 0 1-2.603-.088l4.13-4.13c.2-.2.412-.388.635-.56zm-2.238-.667A6.681 6.681 0 0 0 7.318 5C4.976 5 3 7.071 3 9.5c0 1.93 1.715 7.015 9.284 10.15a.584.584 0 0 0 .67-.192.638.638 0 0 0-.213-.97l-1.188-.594a.998.998 0 0 1-.447-1.341 1 1 0 0 1 1.341-.448l1.188.594.011.006 1.67.835a.565.565 0 0 0 .505-1.011l-1.268-.635a1 1 0 1 1 .894-1.788l2.815 1.407a.64.64 0 0 0 .615-1.12l-5.295-3.178-1.902 1.522a4 4 0 0 1-5.827-.905l-.185-.277a1 1 0 0 1 .125-1.262l4.562-4.563z" clip-rule="evenodd"></path></svg>