<svg class="uitk-icon uitk-icon-default-theme" aria-label="Berge" role="img" viewBox="0 0 24 24" xmlns="http://www.w3.org/2000/svg" xmlns:xlink="http://www.w3.org/1999/xlink"><title>Berge</title><path fill-rule="evenodd" d="M5 7a1 1 0 1 1 2 0 1 1 0 0 1-2 0zm1-3a3 3 0 1 0 0 6 3 3 0 0 0 0-6zm5.397 4.647a3.871 3.871 0 0 1 7.257-.236l4.441 10.9a.5.5 0 0 1-.463.689h-1.08a.5.5 0 0 1-.462-.311L16.802 9.165a1.871 1.871 0 0 0-3.508.114l-2.005 6.016a2.494 2.494 0 0 1-4.596.326l-.273-.544a.5.5 0 0 0-.888-.012l-2.491 4.67A.5.5 0 0 1 2.6 20H1.467a.5.5 0 0 1-.442-.735l3.36-6.3a1.821 1.821 0 0 1 3.236.042l.86 1.72a.494.494 0 0 0 .91-.065l2.006-6.015z" clip-rule="evenodd"></path></svg>