<svg class="uitk-icon uitk-icon-default-theme" aria-label="Strandlage" role="img" viewBox="0 0 24 24" xmlns="http://www.w3.org/2000/svg" xmlns:xlink="http://www.w3.org/1999/xlink"><title>Strandlage</title><path fill-rule="evenodd" d="M2 12.012A10.012 10.012 0 0 1 12.012 2c2.466 0 4.828.896 6.659 2.534.66.59.623 1.572.05 2.146l-3.405 3.405c-.04.052-.083.102-.13.149l-1.77 1.768 8.438 8.437a.5.5 0 0 1 0 .708l-.707.707a.5.5 0 0 1-.707 0l-8.438-8.437-1.766 1.767c-.047.047-.097.09-.149.13L6.68 18.72c-.574.575-1.556.61-2.146-.05A9.959 9.959 0 0 1 2 12.012zm2.576-2.146a9.613 9.613 0 0 1-.154-.428 8.012 8.012 0 0 0-.425 2.574c0 1.791.588 3.506 1.668 4.899l2.106-2.105c-1.433-1.577-2.565-3.305-3.195-4.94zm5.292-5.292a9.604 9.604 0 0 0-.426-.154 8.012 8.012 0 0 1 2.57-.423c1.791 0 3.506.588 4.899 1.668l-2.103 2.103c-1.577-1.432-3.306-2.564-4.94-3.194zm-.72 1.866c1.332.513 2.827 1.47 4.244 2.744L9.187 13.39c-1.275-1.417-2.232-2.912-2.745-4.243-.637-1.651-.397-2.501-.095-2.802.3-.302 1.15-.542 2.802.095z" clip-rule="evenodd"></path></svg>